<svg xmlns="http://www.w3.org/2000/svg" width="21.969" height="19.938" viewBox="0 0 21.969 19.938">
  <defs>
    <style>
      .cls-1 {
        fill-rule: evenodd;
      }
    </style>
  </defs>
  <path id="Cart" class="cls-1" d="M19.811,21.659h2.33l3.319,12a0.813,0.813,0,0,0,.786.6h10.2a0.815,0.815,0,0,0,.745-0.487l3.712-8.531a0.821,0.821,0,0,0-.068-0.772A0.807,0.807,0,0,0,40.16,24.1H28.888a0.812,0.812,0,1,0,0,1.625H38.914l-3.008,6.906h-9.05l-3.319-12a0.813,0.813,0,0,0-.786-0.6h-2.94A0.812,0.812,0,1,0,19.811,21.659Zm5.663,18.308a1.842,1.842,0,1,0-1.843-1.842A1.844,1.844,0,0,0,25.474,39.966Zm11.516,0h0.135A1.906,1.906,0,1,0,36.99,39.966Z" transform="translate(-19 -20.031)"/>
</svg>
