<svg xmlns="http://www.w3.org/2000/svg" width="17" height="22" viewBox="0 0 17 22">
  <defs>
    <style>
      .cls-1 {
        fill-rule: evenodd;
      }
    </style>
  </defs>
  <path id="User" class="cls-1" d="M21,160.1a0.9,0.9,0,0,0,.9.89H37.1a0.9,0.9,0,0,0,.9-0.89c0-4.925-2.241-9.153-5.392-10.844a5.624,5.624,0,1,0-6.2,0C23.242,150.942,21,155.17,21,160.1Zm8.5-19.3a3.8,3.8,0,1,1-3.824,3.8A3.818,3.818,0,0,1,29.5,140.795Zm0,9.42c3.5,0,6.363,3.961,6.677,8.99H22.823C23.137,154.176,26,150.215,29.5,150.215Z" transform="translate(-21 -139)"/>
</svg>
